Patient4_TMGait_0pt4_01_left_41_EMG.mot
version=1
nRows=26
nColumns=33
inDegrees=no
endheader
time	1LAddLong	2LGlutMax	3LGlutMed	4LIliopsoas	5LSemiMemb	6LBicFemLong	7LRecFem	8LVastMed	9LVastLat	10LGasMed	11LTibAnt	12lTibPost	13LPeroneusLong	14LSol	15LExtDigLong	16LFlexDigLong	17RAddLong	18RGlutMax	19RGlutMed	20RIliopsoas	21RSemiMemb	22RBicFemLong	23RRecFem	24RVastMed	25RVastLat	26RGasMed	27RTibAnt	28RTibPost	29RPeroneusLong	30RSol	31RExtDigLong	32RFlexDigLong
51.52	0.009613	0.4454	0.011597	-0.009308	0.027161	0.028992	0.10773	0.008087	-0.050659	0.015411	0.037842	0.012665	-0.006561	0.005951	-0.010223	0.005646	-0.009918	0.17777	0.28931	0.057068	-0.1207	0.097351	0.050659	-0.005798	-0.005646	-0.050049	-0.079651	-0.005798	-0.53024	0.23727	-0.002136	-0.010071
51.521	0.008087	0.43152	-0.016937	-0.014343	0.04715	0.038147	0.08194	0.008698	-0.026855	0.02182	0.059509	-0.000763	-0.002441	0.065613	0.030212	0.007477	-0.017242	0.19989	0.031586	0.022888	0.1004	-0.083008	0.026855	0.004425	-0.01709	-0.05127	-0.084229	-0.032349	1.0152	0.20874	-0.000916	-0.007477
51.522	0.010529	0.44418	-0.06897	-0.005798	0.008087	-0.018158	0.075226	0.005951	-0.001068	-0.006409	-0.003357	0.002747	-0.002289	0.023804	0.023651	0.012665	-0.00061	0.19226	0.12589	-0.070953	0.11871	-0.15915	0.014191	0.034485	-0.019989	-0.14648	-0.1265	-0.053711	1.0318	-0.20355	-0.001831	0.00473
51.523	0.015564	0.42709	-0.041504	-0.014496	0.001678	-0.013428	0.070648	0.007172	0.001678	-0.016327	-0.032196	0.002747	0.014038	0.018311	0.018463	-0.002594	-0.019989	0.14038	0.3122	-0.05722	0.085144	-0.2478	-0.037384	0.098724	0.001373	-0.27618	-0.13016	-0.052948	0.59738	-0.34973	-0.003204	0.00824
51.524	0.003204	0.44708	-0.026398	0.01358	0.009918	0.016632	0.066681	0.007172	0.011597	-0.010223	-0.014954	-0.002899	0.012512	-0.002899	0.014343	0.001831	0.016174	0.14893	-0.007019	0.003204	0.092163	-0.34714	-0.012207	0.025024	-0.024109	-0.049591	-0.13489	-0.004883	0.33905	-0.40359	-0.002747	0.003815
51.525	0.007019	0.42053	0.040131	0.016174	0.028381	-0.009155	0.063629	0.001373	0.02533	-0.037842	-0.006409	0.002747	-0.018005	-0.028076	0.03067	0.000458	0.04425	0.17853	0.029755	0.10269	0.075378	-0.27176	-0.019073	-0.028076	-0.041351	0.093536	-0.09613	-0.010681	0.49774	-0.036163	-0.003662	0.004578
51.526	0.00946	0.40405	0.037537	0.003967	0.020294	-0.000153	0.048065	0.006104	0.065613	-0.026703	0.003357	0.005493	-0.023346	0.030975	0.040588	-0.007019	0.03952	0.12329	0.54474	0.15289	-0.20737	-0.15976	-0.052032	-0.02243	-0.051422	0.046539	-0.089569	-0.064392	0.20935	0.020599	-0.00412	0.001373
51.527	0.002594	0.40665	0.094757	0.001678	0.017853	0.013275	0.044861	0.007019	0.076752	-0.018005	0.003662	0.00351	0.008392	-0.024719	0.047913	-0.005951	-0.018616	0.13184	0.6221	0.14267	-0.27588	-0.038147	-0.071564	0.026245	-0.057678	-0.014343	-0.024872	-0.09964	0.37674	-0.63156	-0.007629	-0.016479
51.528	0.00473	0.4245	0.09552	0.011139	0.019226	0.027008	0.024872	0.009766	0.099792	-0.002441	0.010529	0.00351	0.019684	0.021515	0.029297	-0.003967	-0.047455	0.11536	0.53604	0.097046	-0.31693	0.11307	-0.055695	0.088348	-0.030975	-0.041504	0.037079	-0.2121	0.024872	-0.77713	-0.004272	-0.018005
51.529	0.007477	0.34592	0.056915	0.010376	0.02243	0.03067	0.028687	0.015564	0.112	0.017548	0.006256	-0.005798	0.032196	-0.005646	0.012817	-0.008392	-0.030518	0.10437	0.15854	0.058136	0.18417	0.17456	0.068665	-0.011139	-0.091858	0.030212	0.058899	-0.51605	-0.45029	-0.68924	-0.005798	-0.006104
51.53	-0.00061	0.3157	0.057678	0.002747	0.024261	0.035706	0.02533	0.005035	0.11871	0.006409	0.0177	-0.004578	0.031281	-0.07309	0.014038	0.001068	-0.036011	0.028076	0.21774	0.01709	0.15488	0.14984	0.09079	-0.036163	-0.099945	0.012054	0.063477	-0.3833	-0.24033	-0.46906	-0.003662	-0.008698
51.531	-0.003662	0.3479	0.040131	0.005798	0.019684	0.010071	0.030823	0.012512	0.1294	0.000763	0.003815	-0.009766	0.013733	0.044708	0.018921	-0.001678	-0.040588	0.060577	0.5986	-0.023651	0.003204	0.18982	0.088806	-0.017853	-0.074158	-0.001678	0.054321	0.61401	-0.35828	0.1004	-0.004272	-0.014038
51.532	-0.003662	0.31403	0.020447	0.002899	0.006714	-0.019989	-0.001068	0.014191	0.12146	-0.006409	0.010529	-0.009003	-0.009308	0.035706	0.032654	-0.005188	-0.048828	0.012207	0.54977	-0.064087	0.17288	0.18188	0.007935	0.046082	-0.055389	0.11215	0.043488	0.34668	-0.065765	0.82596	-0.003052	0.002136
51.533	0.006714	0.27817	0.033875	0.001984	0.019531	-0.000153	0.010529	0.007935	0.12802	-0.028229	0.005188	0.001221	-0.028381	-0.019989	0.021057	0.007477	-0.04364	0.006714	0.18601	-0.057373	0.22675	0.071716	-0.09903	0.072937	0.11276	0.079651	0.035553	0.32349	0.12695	0.95429	-0.011902	-0.004578
51.534	0.01709	0.2861	0.040894	0.023193	0.025024	-0.010071	0.028992	0.01236	0.1268	-0.035553	0.007477	-0.005646	-0.001984	-0.048828	0.006409	0.006256	-0.021057	-0.023499	0.12863	-0.050049	0.14481	-0.033875	0.026093	0.057678	0.09552	0.072327	0.054932	0.051575	-0.014496	0.032501	0.000458	-0.012665
51.535	0.018158	0.26047	0.026398	0.007172	0.023651	0.016479	-0.00061	0.006866	0.12085	-0.042725	0.011902	-0.00885	0.03067	-0.0354	0.011292	-0.002899	0.005646	0.043488	0.20584	-0.064087	0.099335	-0.20569	0.15305	0.066681	0.07431	-0.000153	0.05722	0.063171	-0.093079	-0.28732	-0.001984	-0.004272
51.536	0.010071	0.24994	-0.009003	-0.013123	0.050201	0.013885	-0.008698	0.029602	0.12314	-0.023499	0.013733	-0.001984	0.001221	0.005035	0.016022	-0.019836	-0.00061	0.1088	0.41916	-0.031738	0.10803	-0.10742	0.14603	0.11093	0.03479	0.007324	0.085907	0.47882	0.059662	-0.039215	0.000763	-0.009308
51.537	0.012512	0.2504	-0.00824	0.018616	0.013885	0.038605	-0.002136	0.00412	0.11169	0.003052	0.007629	-0.000916	-0.014954	-0.061951	-0.005951	-0.023804	-0.011749	0.12634	0.62439	0.016937	0.10696	-0.20477	0.13428	0.024719	-0.070801	0.010376	0.056152	0.19547	0.14008	0.7161	-0.002747	-0.005646
51.538	0.011597	0.24185	0.00473	0.006714	-0.026855	0.04364	-0.000916	0.004883	0.11246	-0.002899	0.002594	0.002594	0.008087	-0.038452	0.008698	-0.002136	-0.010986	0.14999	0.44693	0.13367	0.067444	-0.24109	-0.14816	-0.14252	-0.09491	0.041046	0.020905	0.035248	0.20569	0.86624	0.000153	0.007019
51.539	0.005341	0.23819	-0.000763	-0.000763	-0.021362	0.035095	-0.001678	0.002899	0.11261	-0.022888	0.003357	-0.003662	0.011292	-0.03418	0.005188	-0.005341	0.003357	0.14938	0.27863	0.17868	-0.057831	-0.24994	-0.22614	-0.22598	-0.082855	0.03479	0.020294	-0.013885	-0.028076	0.88531	-0.005493	0.017242
51.54	0.007782	0.23712	-0.016632	0.009613	-0.020905	0.032806	-0.003967	0.003967	0.12833	-0.020142	-0.002594	-0.011444	-0.006409	-0.044556	-0.016174	-0.013733	0.015717	0.19852	0.30487	0.085602	-0.15793	-0.21927	-0.24414	-0.15945	0.062256	0.030975	0.033417	-0.024109	-0.20386	0.42664	-0.004883	0.009308
51.541	0.005646	0.21866	-0.019226	0.020447	-0.016174	0.038605	0.00885	0.003204	0.12665	-0.021057	-0.000763	-0.002289	-0.032654	-0.083618	-0.011444	-0.001678	-0.001373	0.10986	-0.075226	0.084229	-0.048218	-0.17349	-0.36423	-0.056	0.15366	0.026855	0.052338	0.031128	-0.16037	-0.088654	-0.004578	-0.005798
51.542	0.007935	0.2121	-0.009155	0.007324	-0.022125	0.028381	-0.014496	0.002594	0.14069	-0.004883	0.037384	-0.009003	-0.0383	-0.039215	0.016632	0.001221	-0.001678	0.14603	-0.20981	0.082855	0.14511	-0.17593	-0.085907	-0.017548	0.11841	0.003967	0.062408	-0.12695	-0.009613	-0.007019	-0.001526	0.002594
51.543	0.007477	0.18524	-0.041199	-0.000305	-0.030365	0.048828	0.000458	0.005493	0.1384	-0.029602	0.007782	-0.00824	0.004425	0.1387	-0.00061	0.002289	-0.010681	0.21118	0.040131	0.014648	0.13367	-0.048523	-0.006409	0.093231	0.062103	-0.024719	0.062866	-0.046082	0.14374	0.15839	-0.003967	0.00061
51.544	0.007019	0.22415	-0.00885	-0.002747	-0.03006	0.051422	-0.024414	0.002289	0.15289	-0.022888	0.010834	-0.005188	0.024414	0.15396	0.21866	0.00885	-0.007172	0.21286	0.35248	-0.061035	0.090942	0.085297	-0.01297	0.13718	0.085449	-0.077362	0.04303	-0.07431	0.12894	0.10254	-0.004272	0.005188
51.545	0.006104	0.15869	-0.014801	-0.002289	-0.050812	0.03952	-0.016785	0.004578	0.15564	0.001831	0.068207	-0.01236	0.039368	0.01236	0.098267	0.003357	0.009613	0.18356	0.15823	-0.079193	0.053101	0.26123	-0.042267	0.09903	0.055389	-0.050354	0.039368	-0.10559	-0.034637	0.20172	-0.002747	-0.001526
